<svg width="48" height="48" viewBox="0 0 48 48" fill="none" xmlns="http://www.w3.org/2000/svg">
<g clip-path="url(#clip0_18:66)">
<rect width="48" height="48" fill="white"/>
<path d="M29.5 40.5C29.5 41.6709 28.4713 43.1638 25.8068 44.4531C23.2467 45.6918 19.6045 46.5 15.5 46.5C11.3955 46.5 7.75333 45.6918 5.19319 44.4531C2.52873 43.1638 1.5 41.6709 1.5 40.5C1.5 39.3291 2.52873 37.8362 5.19319 36.5469C7.75333 35.3082 11.3955 34.5 15.5 34.5C19.6045 34.5 23.2467 35.3082 25.8068 36.5469C28.4713 37.8362 29.5 39.3291 29.5 40.5Z" stroke="#152C5B" stroke-width="3"/>
<path d="M26.5 12.9531C26.5 16.2886 25.1034 23.3653 22.7853 29.6394C21.6307 32.7646 20.2854 35.5836 18.8421 37.5921C17.3393 39.6833 16.0211 40.5 15 40.5C13.9789 40.5 12.6607 39.6833 11.1579 37.5921C9.71459 35.5836 8.3693 32.7646 7.21465 29.6394C4.89663 23.3653 3.5 16.2886 3.5 12.9531C3.5 6.63284 8.64361 1.5 15 1.5C21.3564 1.5 26.5 6.63284 26.5 12.9531Z" fill="white" stroke="#152C5B" stroke-width="3"/>
<path d="M19.5 13C19.5 15.4853 17.4853 17.5 15 17.5C12.5147 17.5 10.5 15.4853 10.5 13C10.5 10.5147 12.5147 8.5 15 8.5C17.4853 8.5 19.5 10.5147 19.5 13Z" stroke="#FF498E" stroke-width="3"/>
</g>
<defs>
<clipPath id="clip0_18:66">
<rect width="48" height="48" fill="white"/>
</clipPath>
</defs>
</svg>
