<svg width="48" height="48" viewBox="0 0 48 48" fill="none" xmlns="http://www.w3.org/2000/svg">
<rect width="48" height="48" fill="white"/>
<mask id="path-1-inside-1_19:99" fill="white">
<path fill-rule="evenodd" clip-rule="evenodd" d="M15.8255 5C15.022 5 14.2966 5.48078 13.9835 6.22072L11.9615 11H8C3.58172 11 0 14.5817 0 19V38C0 42.4183 3.58172 46 8 46H40C44.4183 46 48 42.4183 48 38V19C48 14.5817 44.4183 11 40 11H35.0385L33.0165 6.22072C32.7034 5.48078 31.978 5 31.1745 5H15.8255Z"/>
</mask>
<path d="M13.9835 6.22072L16.7464 7.38964V7.38964L13.9835 6.22072ZM11.9615 11V14H13.9498L14.7244 12.1689L11.9615 11ZM35.0385 11L32.2756 12.1689L33.0502 14H35.0385V11ZM33.0165 6.22072L30.2536 7.38963L30.2536 7.38964L33.0165 6.22072ZM16.7464 7.38964C16.5899 7.75961 16.2272 8 15.8255 8V2C13.8169 2 12.0033 3.20195 11.2206 5.0518L16.7464 7.38964ZM14.7244 12.1689L16.7464 7.38964L11.2206 5.0518L9.19864 9.83108L14.7244 12.1689ZM8 14H11.9615V8H8V14ZM3 19C3 16.2386 5.23858 14 8 14V8C1.92487 8 -3 12.9249 -3 19H3ZM3 38V19H-3V38H3ZM8 43C5.23858 43 3 40.7614 3 38H-3C-3 44.0751 1.92487 49 8 49V43ZM40 43H8V49H40V43ZM45 38C45 40.7614 42.7614 43 40 43V49C46.0751 49 51 44.0751 51 38H45ZM45 19V38H51V19H45ZM40 14C42.7614 14 45 16.2386 45 19H51C51 12.9249 46.0751 8 40 8V14ZM35.0385 14H40V8H35.0385V14ZM30.2536 7.38964L32.2756 12.1689L37.8014 9.83108L35.7794 5.0518L30.2536 7.38964ZM31.1745 8C30.7728 8 30.4101 7.75961 30.2536 7.38963L35.7794 5.05181C34.9967 3.20195 33.1831 2 31.1745 2V8ZM15.8255 8H31.1745V2H15.8255V8Z" fill="#152C5B" mask="url(#path-1-inside-1_19:99)"/>
<path d="M30.5 27C30.5 30.5899 27.5899 33.5 24 33.5C20.4101 33.5 17.5 30.5899 17.5 27C17.5 23.4101 20.4101 20.5 24 20.5C27.5899 20.5 30.5 23.4101 30.5 27Z" stroke="#FF498E" stroke-width="3"/>
<path d="M34 18H42" stroke="#152C5B" stroke-width="3"/>
</svg>
