<svg width="48" height="48" viewBox="0 0 48 48" fill="none" xmlns="http://www.w3.org/2000/svg">
<rect width="48" height="48" fill="white"/>
<path d="M1.5 29C1.5 27.6193 2.61929 26.5 4 26.5H20C21.3807 26.5 22.5 27.6193 22.5 29V35C22.5 36.3807 21.3807 37.5 20 37.5H4C2.61929 37.5 1.5 36.3807 1.5 35V29Z" stroke="#152C5B" stroke-width="3"/>
<path d="M4.5 46C4.5 46.8284 5.17157 47.5 6 47.5C6.82843 47.5 7.5 46.8284 7.5 46H4.5ZM4.5 37V41.5H7.5V37H4.5ZM4.5 41.5V46H7.5V41.5H4.5Z" fill="#152C5B"/>
<path d="M15.5 46C15.5 46.8284 16.1716 47.5 17 47.5C17.8284 47.5 18.5 46.8284 18.5 46H15.5ZM15.5 37V42H18.5V37H15.5ZM15.5 42V46H18.5V42H15.5Z" fill="#152C5B"/>
<path d="M14.5 18C14.5 18.8284 15.1716 19.5 16 19.5C16.8284 19.5 17.5 18.8284 17.5 18H14.5ZM14.5 13V15.7778H17.5V13H14.5ZM14.5 15.7778V18H17.5V15.7778H14.5Z" fill="#152C5B"/>
<path d="M9.5 26C9.5 26.8284 10.1716 27.5 11 27.5C11.8284 27.5 12.5 26.8284 12.5 26H9.5ZM9.5 12V19.7778H12.5V12H9.5ZM9.5 19.7778V26H12.5V19.7778H9.5Z" fill="#152C5B"/>
<path d="M4.15763 4.31651C4.44504 3.52614 5.19621 3 6.03722 3H15.4335C16.2362 3 16.9612 3.47993 17.2747 4.2189L19.8201 10.2189C20.3797 11.5378 19.4117 13 17.979 13H3.8554C2.46747 13 1.5015 11.6209 1.97581 10.3165L4.15763 4.31651Z" stroke="#FF498E" stroke-width="3"/>
</svg>
