<svg width="48" height="48" viewBox="0 0 48 48" fill="none" xmlns="http://www.w3.org/2000/svg">
<rect width="48" height="48" fill="white"/>
<path d="M13 17C13 15.3431 14.3431 14 16 14H20C21.6569 14 23 15.3431 23 17V24H13V17Z" stroke="#FF498E" stroke-width="3"/>
<path d="M26 17C26 15.3431 27.3431 14 29 14H33C34.6569 14 36 15.3431 36 17V24H26V17Z" stroke="#FF498E" stroke-width="3"/>
<path d="M8.5 11C8.5 6.30558 12.3056 2.5 17 2.5H32C36.6944 2.5 40.5 6.30558 40.5 11V24.5H8.5V11Z" stroke="#152C5B" stroke-width="3"/>
<mask id="path-4-inside-1_45:301" fill="white">
<path d="M0 27C0 24.7909 1.79086 23 4 23H44C46.2091 23 48 24.7909 48 27V37C48 38.1046 47.1046 39 46 39H2C0.895431 39 0 38.1046 0 37V27Z"/>
</mask>
<path d="M0 27C0 24.7909 1.79086 23 4 23H44C46.2091 23 48 24.7909 48 27V37C48 38.1046 47.1046 39 46 39H2C0.895431 39 0 38.1046 0 37V27Z" stroke="#152C5B" stroke-width="6" mask="url(#path-4-inside-1_45:301)"/>
<path d="M8.5 11C8.5 6.30558 12.3056 2.5 17 2.5H32C36.6944 2.5 40.5 6.30558 40.5 11V24.5H8.5V11Z" stroke="#152C5B" stroke-width="3"/>
<mask id="path-6-inside-2_45:301" fill="white">
<path d="M0 27C0 24.7909 1.79086 23 4 23H44C46.2091 23 48 24.7909 48 27V37C48 38.1046 47.1046 39 46 39H2C0.895431 39 0 38.1046 0 37V27Z"/>
</mask>
<path d="M0 27C0 24.7909 1.79086 23 4 23H44C46.2091 23 48 24.7909 48 27V37C48 38.1046 47.1046 39 46 39H2C0.895431 39 0 38.1046 0 37V27Z" stroke="#152C5B" stroke-width="6" mask="url(#path-6-inside-2_45:301)"/>
<path d="M3.5 46C3.5 46.8284 4.17157 47.5 5 47.5C5.82843 47.5 6.5 46.8284 6.5 46H3.5ZM3.5 37V41.5H6.5V37H3.5ZM3.5 41.5V46H6.5V41.5H3.5Z" fill="#152C5B"/>
<path d="M41.5 46C41.5 46.8284 42.1716 47.5 43 47.5C43.8284 47.5 44.5 46.8284 44.5 46H41.5ZM41.5 37V42H44.5V37H41.5ZM41.5 42V46H44.5V42H41.5Z" fill="#152C5B"/>
<path d="M6 42H43" stroke="#152C5B" stroke-width="3"/>
</svg>
