<svg width="48" height="48" viewBox="0 0 48 48" fill="none" xmlns="http://www.w3.org/2000/svg">
<g clip-path="url(#clip0_51:399)">
<rect width="48" height="48" fill="white"/>
<path d="M14.0419 30.1717C16.3951 27.109 20.0907 25.1209 24.2614 25.0859C28.4322 25.051 32.1606 26.977 34.5648 29.9998" stroke="#152C5B" stroke-width="3" stroke-linecap="round" stroke-linejoin="round"/>
<path d="M9.05502 21.8143C12.4296 17.7887 17.7265 15.1732 23.7021 15.1232C29.6777 15.0731 35.0176 17.5994 38.4592 21.568" stroke="#152C5B" stroke-width="3" stroke-linecap="round" stroke-linejoin="round"/>
<path d="M5.06473 14.0419C9.37966 9.30285 16.1493 6.2213 23.784 6.15735C31.4187 6.0934 38.239 9.0611 42.6327 13.7272" stroke="#152C5B" stroke-width="3" stroke-linecap="round" stroke-linejoin="round"/>
<path d="M28.5 39C28.5 41.4853 26.4853 43.5 24 43.5C21.5147 43.5 19.5 41.4853 19.5 39C19.5 36.5147 21.5147 34.5 24 34.5C26.4853 34.5 28.5 36.5147 28.5 39Z" stroke="#FF498E" stroke-width="3"/>
</g>
<defs>
<clipPath id="clip0_51:399">
<rect width="48" height="48" fill="white"/>
</clipPath>
</defs>
</svg>
