<svg width="48" height="48" viewBox="0 0 48 48" fill="none" xmlns="http://www.w3.org/2000/svg">
<g clip-path="url(#clip0_50:360)">
<rect width="48" height="48" fill="white"/>
<path d="M7.82077 20.6447C8.28115 19.9311 9.0723 19.5 9.92151 19.5H39.3696C40.305 19.5 41.1621 20.0222 41.5912 20.8534L43.6557 24.8534C44.5145 26.5173 43.3066 28.5 41.4341 28.5H7.34087C5.36112 28.5 4.16685 26.3083 5.24013 24.6447L7.82077 20.6447Z" stroke="#152C5B" stroke-width="3"/>
<mask id="path-2-inside-1_50:360" fill="white">
<path d="M42 28C42.5523 28 43 28.4477 43 29L43 43C43 45.2091 41.2091 47 39 47C36.7909 47 35 45.2091 35 43L35 29C35 28.4477 35.4477 28 36 28L42 28Z"/>
</mask>
<path d="M42 28C42.5523 28 43 28.4477 43 29L43 43C43 45.2091 41.2091 47 39 47C36.7909 47 35 45.2091 35 43L35 29C35 28.4477 35.4477 28 36 28L42 28Z" stroke="#152C5B" stroke-width="6" mask="url(#path-2-inside-1_50:360)"/>
<mask id="path-3-inside-2_50:360" fill="white">
<path d="M18 9C18.5523 9 19 9.44772 19 10L19 19C19 19.5523 18.5523 20 18 20C17.4477 20 17 19.5523 17 19L17 10C17 9.44771 17.4477 9 18 9Z"/>
</mask>
<path d="M16 10L16 19L22 19L22 10L16 10ZM20 19L20 10L14 10L14 19L20 19ZM20 10C20 11.1046 19.1046 12 18 12L18 6C15.7909 6 14 7.79086 14 10L20 10ZM18 17C19.1046 17 20 17.8954 20 19L14 19C14 21.2091 15.7909 23 18 23L18 17ZM16 19C16 17.8954 16.8954 17 18 17L18 23C20.2091 23 22 21.2091 22 19L16 19ZM22 10C22 7.79086 20.2091 6 18 6L18 12C16.8954 12 16 11.1046 16 10L22 10Z" fill="#152C5B" mask="url(#path-3-inside-2_50:360)"/>
<mask id="path-5-inside-3_50:360" fill="white">
<path d="M29 9C29.5523 9 30 9.44772 30 10L30 19C30 19.5523 29.5523 20 29 20C28.4477 20 28 19.5523 28 19L28 10C28 9.44771 28.4477 9 29 9Z"/>
</mask>
<path d="M27 10L27 19L33 19L33 10L27 10ZM31 19L31 10L25 10L25 19L31 19ZM31 10C31 11.1046 30.1046 12 29 12L29 6C26.7909 6 25 7.79086 25 10L31 10ZM29 17C30.1046 17 31 17.8954 31 19L25 19C25 21.2091 26.7909 23 29 23L29 17ZM27 19C27 17.8954 27.8954 17 29 17L29 23C31.2091 23 33 21.2091 33 19L27 19ZM33 10C33 7.79086 31.2091 6 29 6L29 12C27.8954 12 27 11.1046 27 10L33 10Z" fill="#152C5B" mask="url(#path-5-inside-3_50:360)"/>
<mask id="path-7-inside-4_50:360" fill="white">
<path d="M21 2C21.5523 2 22 2.44772 22 3L22 8C22 10.2091 20.2091 12 18 12C15.7909 12 14 10.2091 14 8L14 3C14 2.44772 14.4477 2 15 2L21 2Z"/>
</mask>
<path d="M21 2C21.5523 2 22 2.44772 22 3L22 8C22 10.2091 20.2091 12 18 12C15.7909 12 14 10.2091 14 8L14 3C14 2.44772 14.4477 2 15 2L21 2Z" stroke="#FF498E" stroke-width="6" mask="url(#path-7-inside-4_50:360)"/>
<mask id="path-8-inside-5_50:360" fill="white">
<path d="M32 2C32.5523 2 33 2.44772 33 3L33 8C33 10.2091 31.2091 12 29 12C26.7909 12 25 10.2091 25 8L25 3C25 2.44772 25.4477 2 26 2L32 2Z"/>
</mask>
<path d="M32 2C32.5523 2 33 2.44772 33 3L33 8C33 10.2091 31.2091 12 29 12C26.7909 12 25 10.2091 25 8L25 3C25 2.44772 25.4477 2 26 2L32 2Z" stroke="#FF498E" stroke-width="6" mask="url(#path-8-inside-5_50:360)"/>
<mask id="path-9-inside-6_50:360" fill="white">
<path d="M13 27C13.5523 27 14 27.4477 14 28L14 43C14 45.2091 12.2091 47 10 47C7.79086 47 6 45.2091 6 43L6 28C6 27.4477 6.44772 27 7 27L13 27Z"/>
</mask>
<path d="M13 27C13.5523 27 14 27.4477 14 28L14 43C14 45.2091 12.2091 47 10 47C7.79086 47 6 45.2091 6 43L6 28C6 27.4477 6.44772 27 7 27L13 27Z" stroke="#152C5B" stroke-width="6" mask="url(#path-9-inside-6_50:360)"/>
</g>
<defs>
<clipPath id="clip0_50:360">
<rect width="48" height="48" fill="white"/>
</clipPath>
</defs>
</svg>
