<svg width="48" height="48" viewBox="0 0 48 48" fill="none" xmlns="http://www.w3.org/2000/svg">
<rect width="48" height="48" fill="white"/>
<mask id="path-1-inside-1_53:450" fill="white">
<path d="M35 -1.37379e-07C37.2091 -6.15065e-08 39 1.79086 39 4L39 44C39 46.2091 37.2091 48 35 48L13 48C11.8954 48 11 47.1046 11 46L11 2C11 0.89543 11.8954 -9.30897e-07 13 -8.92961e-07L35 -1.37379e-07Z"/>
</mask>
<path d="M35 -1.37379e-07C37.2091 -6.15065e-08 39 1.79086 39 4L39 44C39 46.2091 37.2091 48 35 48L13 48C11.8954 48 11 47.1046 11 46L11 2C11 0.89543 11.8954 -9.30897e-07 13 -8.92961e-07L35 -1.37379e-07Z" stroke="#152C5B" stroke-width="6" mask="url(#path-1-inside-1_53:450)"/>
<path d="M32 26L32 21L32 17" stroke="#FF498E" stroke-width="3" stroke-linecap="round"/>
<path d="M20 3L20 46" stroke="#152C5B" stroke-width="3"/>
</svg>
