<svg width="48" height="48" viewBox="0 0 48 48" fill="none" xmlns="http://www.w3.org/2000/svg">
<g clip-path="url(#clip0_49:342)">
<rect width="48" height="48" fill="white"/>
<path d="M38.4413 21.9932C38.436 22.8217 39.1034 23.4962 39.9318 23.4998C40.7602 23.5034 41.436 22.8348 41.4412 22.0064L38.4413 21.9932ZM38.542 5.99358L38.486 14.8823L41.486 14.8954L41.542 6.00672L38.542 5.99358ZM38.486 14.8823L38.4413 21.9932L41.4412 22.0064L41.486 14.8954L38.486 14.8823Z" fill="#FF498E"/>
<path d="M29 5.81818L32.3548 2.907C32.9837 2.36128 33.8848 2.26227 34.6172 2.65844L38.8982 4.97421C39.2574 5.16855 39.5486 5.46823 39.7324 5.83295L39.7859 5.93891C39.9267 6.21817 40 6.52655 40 6.83929V8" stroke="#FF498E" stroke-width="3"/>
<path d="M1.5 26C1.5 24.6193 2.61929 23.5 4 23.5H44C45.3807 23.5 46.5 24.6193 46.5 26V27C46.5 28.3807 45.3807 29.5 44 29.5H4C2.61929 29.5 1.5 28.3807 1.5 27V26Z" stroke="#152C5B" stroke-width="3"/>
<path d="M5.5 29.5H42.5V39C42.5 40.933 40.933 42.5 39 42.5H9C7.067 42.5 5.5 40.933 5.5 39V29.5Z" stroke="#152C5B" stroke-width="3"/>
<path d="M9.5 46C9.5 46.8284 10.1716 47.5 11 47.5C11.8284 47.5 12.5 46.8284 12.5 46H9.5ZM9.5 42V44H12.5V42H9.5ZM9.5 44V46H12.5V44H9.5Z" fill="#152C5B"/>
<path d="M35.5 46C35.5 46.8284 36.1716 47.5 37 47.5C37.8284 47.5 38.5 46.8284 38.5 46H35.5ZM35.5 42V44.2222H38.5V42H35.5ZM35.5 44.2222V46H38.5V44.2222H35.5Z" fill="#152C5B"/>
</g>
<defs>
<clipPath id="clip0_49:342">
<rect width="48" height="48" fill="white"/>
</clipPath>
</defs>
</svg>
