<svg width="48" height="48" viewBox="0 0 48 48" fill="none" xmlns="http://www.w3.org/2000/svg">
<rect width="48" height="48" fill="white"/>
<rect x="1.5" y="14.5" width="25" height="32" rx="6.5" stroke="#152C5B" stroke-width="3"/>
<path d="M6.5 38.5C6.5 39.3284 7.17157 40 8 40C8.82843 40 9.5 39.3284 9.5 38.5H6.5ZM18 38.5C18 39.3284 18.6716 40 19.5 40C20.3284 40 21 39.3284 21 38.5H18ZM6.5 21.5V30H9.5V21.5H6.5ZM6.5 30V38.5H9.5V30H6.5ZM18 21.5V30H21V21.5H18ZM18 30V38.5H21V30H18Z" fill="#FF498E"/>
<path d="M6.5 34C6.5 34.8284 7.17157 35.5 8 35.5C8.82843 35.5 9.5 34.8284 9.5 34H6.5ZM12.5 34C12.5 34.8284 13.1716 35.5 14 35.5C14.8284 35.5 15.5 34.8284 15.5 34H12.5ZM6.5 27V30.5H9.5V27H6.5ZM6.5 30.5V34H9.5V30.5H6.5ZM12.5 27V30.5H15.5V27H12.5ZM12.5 30.5V34H15.5V30.5H12.5Z" fill="#FF498E"/>
<path d="M8.5 4C8.5 2.61929 9.61929 1.5 11 1.5H17C18.3807 1.5 19.5 2.61929 19.5 4V13.5H8.5V4Z" stroke="#152C5B" stroke-width="3"/>
</svg>
